<?xml version="1.0" encoding="UTF-8"?>
<svg id="Capa_2" data-name="Capa 2" xmlns="http://www.w3.org/2000/svg" viewBox="0 0 204.96 32.61">
  <defs>
    <style>
      .cls-1 {
        fill: #fff;
      }

      .cls-1, .cls-2, .cls-3 {
        fill-rule: evenodd;
      }

      .cls-2, .cls-4 {
        fill: #222221;
      }

      .cls-3 {
        fill: #0089ca;
      }
    </style>
  </defs>
  <g id="Capa_1-2" data-name="Capa 1">
    <g>
      <g>
        <polygon class="cls-1" points="31 0 62.14 16.3 31.04 32.61 0 16.3 31 0 31 0"/>
        <path class="cls-3" d="M32.64,7.37c6.35,1.97,27.13,8.94,27.13,8.94h.54L31.03.92,1.82,16.31h.48s20.84-6.87,27.19-8.95c.96-.33,2.13-.36,3.14.01h0Z"/>
        <g>
          <path class="cls-2" d="M29.54,25.26c-6.24-2.2-27.22-8.96-27.22-8.96h-.49s29.26,15.4,29.26,15.4l29.22-15.39h-.52s-20.93,6.76-27.17,8.95c-1.1.35-1.97.34-3.08,0h0Z"/>
          <path class="cls-2" d="M19.46,13.15h-3.47v6.57s2.39,0,3.47,0c1.31-.01,2.28-.4,2.89-1.15.56-.69.67-1.53.67-2.1,0-.55-.17-3.27-3.56-3.31h0ZM21.01,16.46c0,.83-.63,1.45-1.46,1.45h-1.46v-2.89h1.46c.39,0,.78.16,1.05.43.27.27.42.63.42,1.01h0Z"/>
          <path class="cls-2" d="M27.59,13.15h-2.35l-2.78,6.57h2.25l.33-.75h2.79l.3.75h2.38l-2.92-6.57h0ZM25.73,17.4l.68-1.73.71,1.73h-1.39Z"/>
          <path class="cls-2" d="M43.51,13.15h-2.36l-2.78,6.57h2.25l.33-.75h2.79l.3.75h2.39l-2.92-6.57h0ZM41.65,17.4l.68-1.73.71,1.73h-1.39Z"/>
          <path class="cls-2" d="M35.83,13.15v3.54l-2.81-3.54h-2.28v6.57h2.22v-3.45c.33.42,2.81,3.45,2.81,3.45h2.29v-6.57h-2.23Z"/>
        </g>
      </g>
      <g>
        <polygon class="cls-4" points="70.83 10.06 67.29 10.06 70.07 22.42 73.67 22.42 80.64 10.06 76.47 10.06 72.43 18.15 70.83 10.06 70.83 10.06"/>
        <polygon class="cls-4" points="79.33 22.42 82.93 22.42 85.58 10.06 81.98 10.06 79.33 22.42 79.33 22.42"/>
        <path class="cls-4" d="M85.87,17.44c.16,3.39,2.6,5.39,6.1,5.39,2.6,0,5.19-1.48,6.22-3.74l-3.06-1.61c0,.12-.09.39-.16.51-.44,1.15-1.59,2.05-2.94,2.05-1.56,0-2.42-.9-2.49-2.33-.09-1.82.57-3.99,2.05-5.14.43-.34.96-.51,1.53-.51,1.54,0,2.39,1.13,2.46,2.49l3.03-1.04c-.49-2.51-2.88-3.87-5.38-3.87-4.71,0-7.58,3.48-7.38,7.8h.02Z"/>
        <polygon class="cls-4" points="104.7 22.42 106.78 12.81 110.73 12.81 111.32 10.06 99.77 10.06 99.2 12.76 103.13 12.76 101.05 22.42 104.7 22.42 104.7 22.42"/>
        <path class="cls-2" d="M110.41,17.09c.04.81.22,1.61.58,2.4,1.06,2.37,3.31,3.27,5.83,3.27,4.86,0,7.67-3.23,7.45-7.77-.04-.9-.23-1.82-.76-2.67-1.2-1.93-3.35-2.68-5.56-2.68-1.24,0-2.44.16-3.55.65-2.79,1.27-4.16,3.82-4.01,6.8h.02ZM120.67,15.06c.03.51-.1,1.06-.2,1.55-.44,1.96-1.57,3.62-3.89,3.62-1.93,0-2.58-1.54-2.65-3.14-.11-2.38,1.4-4.8,4.13-4.8,1.67,0,2.55,1.31,2.62,2.77h0Z"/>
        <path class="cls-2" d="M123.98,22.42h3.65l1.01-4.75h1.63l1.79,4.75h3.73l-2-5.08c2.03-.48,3.57-1.59,3.47-3.76-.12-2.4-1.67-3.51-4.12-3.51h-6.51l-2.65,12.36h0ZM131.4,15.11h-2.22l.56-2.53h2.69c.69,0,1.36.25,1.4,1.01.06,1.27-1.39,1.52-2.45,1.52h.02Z"/>
        <path class="cls-2" d="M142.95,22.42h3.65l1.01-4.75h1.63l1.78,4.75h3.73l-2-5.08c2.04-.48,3.58-1.59,3.47-3.76-.12-2.4-1.67-3.51-4.12-3.51h-6.51l-2.65,12.36h0ZM150.37,15.11h-2.23l.56-2.53h2.69c.69,0,1.37.25,1.4,1.01.06,1.27-1.39,1.52-2.45,1.52h.02Z"/>
        <polygon class="cls-4" points="158.48 10.06 155.82 22.42 166.41 22.42 167 19.67 160.05 19.67 160.58 17.17 166.57 17.17 167.1 14.72 161.11 14.72 161.55 12.62 168.06 12.62 168.62 10.06 158.48 10.06 158.48 10.06"/>
        <polygon class="cls-4" points="167.99 22.42 171.59 22.42 174.24 10.06 170.64 10.06 167.99 22.42 167.99 22.42"/>
        <polygon class="cls-4" points="176.01 10.06 173.34 22.42 176.99 22.42 178.61 14.81 181.63 22.42 185.47 22.42 188.12 10.06 184.46 10.06 182.81 17.78 179.77 10.06 176.01 10.06 176.01 10.06"/>
        <polygon class="cls-4" points="199.56 10.06 189.56 10.06 188.97 12.76 194.42 12.76 187.4 20.23 187 22.42 198.22 22.42 198.75 19.59 192.36 19.59 199.21 12.07 199.56 10.06 199.56 10.06"/>
        <g>
          <path class="cls-4" d="M201.52,10.3h-.73v-.24h1.74v.24h-.73v1.93h-.29v-1.93Z"/>
          <path class="cls-4" d="M202.79,10.06h.4l.69,1.83.69-1.83h.4v2.18h-.27v-1.81h0l-.68,1.81h-.25l-.68-1.81h0v1.81h-.27v-2.18Z"/>
        </g>
      </g>
    </g>
  </g>
</svg>