<?xml version="1.0" encoding="UTF-8"?>
<svg id="Capa_2" data-name="Capa 2" xmlns="http://www.w3.org/2000/svg" viewBox="0 0 147.34 81.87">
  <defs>
    <style>
      .cls-1 {
        fill: none;
        stroke: #2a4b8f;
        stroke-width: .37px;
      }

      .cls-2 {
        fill: #2a4b8f;
      }

      .cls-3 {
        fill: #bd3237;
      }
    </style>
  </defs>
  <g id="Capa_1-2" data-name="Capa 1">
    <g>
      <path class="cls-1" d="M88.63,13.08s2.5,0,2.5,2.5"/>
      <path class="cls-2" d="M11.01,32.72s.49,2.44,1.16,5.07c.33,1.31.71,2.68,1.1,3.82.2.57.4,1.09.6,1.54.1.22.21.43.33.62.12.19.24.36.41.53l.69-.69-.8.54,4.82,7.1,7.16,4.89,1.09-1.6-6.86-4.68-4.67-6.87-.06-.06s-.06-.07-.13-.18c-.12-.2-.28-.53-.45-.95-.29-.73-.6-1.69-.89-2.73-.44-1.55-.84-3.24-1.13-4.54-.15-.65-.27-1.2-.35-1.59-.04-.2-.07-.35-.09-.45-.02-.1-.03-.16-.03-.16l-1.9.38M108.84,64.54l4.1,10.38v2.75l-.25.25-1.55,1.55.69.69.89-.37s-1.44-3.47-3.3-6.96c-.94-1.75-1.98-3.5-3.04-4.86-.53-.68-1.07-1.27-1.64-1.72-.28-.23-.58-.42-.9-.56-.32-.14-.67-.24-1.05-.24h-5.83v.97l.4-.88s-.79-.35-1.87-.7c-1.09-.35-2.5-.7-3.9-.71-.5,0-1,.05-1.48.17-.36.09-.72.23-1.06.43-.5.3-.95.75-1.24,1.33-.29.58-.43,1.26-.43,2.02h.97l-.54-.81.19.28-.19-.28h0s.19.28.19.28l-.19-.28s-.35.22-.84.43c-.49.21-1.14.4-1.75.4-.32,0-.62-.05-.9-.15-.29-.11-.56-.28-.84-.55l-.18-.18-.25-.07c-.06-.01-1.23-.34-2.9-.34-.95,0-2.07.11-3.22.46-1.73.52-3.55,1.63-4.88,3.68-1.33,2.04-2.17,4.96-2.17,9.08h.97l-.5-.83.21.35-.19-.36h-.02s.21.36.21.36l-.19-.36s-.36.19-.95.19c-.38,0-.87-.07-1.48-.33-.91-.39-2.08-1.22-3.43-2.93-1.35-1.71-2.86-4.29-4.42-8.12l-.04-.1-.06-.09c-.04-.05-.28-.41-.76-.79-.24-.19-.53-.39-.9-.54-.36-.15-.79-.26-1.26-.26-.47,0-.98.11-1.49.35-.51.24-1.01.6-1.52,1.11l-.09.09-.06.12.46.26-.45-.27h0s.46.27.46.27l-.45-.27h0s-.11.17-.23.26c-.06.05-.13.09-.19.11-.06.02-.12.04-.19.04-.08,0-.17-.01-.32-.08-.22-.09-.55-.31-.95-.75-.41-.44-.89-1.11-1.43-2.07l-1.69.95c.79,1.4,1.52,2.34,2.23,2.96.36.31.72.54,1.08.7.36.15.73.23,1.08.23.39,0,.74-.09,1.03-.23.44-.2.73-.48.93-.71.2-.23.3-.41.33-.45l-.84-.48.69.69c.38-.38.7-.6.97-.72.27-.13.48-.16.67-.16.18,0,.35.04.51.11.24.1.46.27.61.42.07.07.13.14.17.18l.04.05h0s.39-.27.39-.27l-.39.27h0s.39-.27.39-.27l-.39.27.8-.55-.9.37c2.15,5.27,4.25,8.38,6.17,10.22.96.92,1.87,1.51,2.72,1.87.84.36,1.61.49,2.25.49,1.14,0,1.83-.39,1.93-.45l.47-.28v-.55c0-2.57.35-4.55.9-6.07.41-1.14.94-2.02,1.52-2.7.87-1.03,1.88-1.64,2.92-2.02,1.03-.37,2.09-.49,3-.49.7,0,1.31.07,1.74.14.21.04.38.07.49.09.06.01.1.02.12.03h.03s0,0,0,0l.1-.37-.1.37h0s.1-.37.1-.37l-.1.37.26-.93-.69.68c.46.47.99.79,1.53.99.54.2,1.08.28,1.58.28,1.02,0,1.91-.29,2.56-.57.65-.28,1.07-.56,1.1-.58l.43-.29v-.52c0-.48.08-.82.18-1.06.08-.18.17-.32.29-.43.17-.17.39-.3.7-.39.3-.09.68-.14,1.1-.14,1.05,0,2.32.3,3.31.62.49.16.92.32,1.21.43.15.06.26.11.34.14l.09.04h.02s0,.01,0,.01l.19.09h6.04s.12.01.26.07c.24.11.62.38,1.03.81.72.74,1.54,1.9,2.33,3.2,1.19,1.95,2.32,4.23,3.16,6.01.42.89.76,1.66,1,2.2.12.27.21.49.27.64.03.07.05.13.07.17l.02.06.56,1.34,2.58-2.58.81-.82v-3.92l-4.23-10.73-1.8.71M120.44,34.67h0c0,.08-.25,2.61-1.78,6.4-1.53,3.79-4.34,8.84-9.5,14.01l1.37,1.37c5.45-5.45,8.41-10.82,10.01-14.84,1.6-4.02,1.83-6.69,1.83-6.77l-1.93-.16M124,19.49c0-.1.02-.29.08-.52.1-.41.28-.95.51-1.5.34-.84.77-1.72,1.1-2.38.17-.33.32-.61.42-.81.05-.1.09-.17.12-.23.03-.05.04-.08.04-.08l.12-.22v-.25h0s.03-.12.1-.25c.13-.23.4-.54.72-.85.49-.47,1.12-.93,1.61-1.27.25-.17.46-.31.61-.4.08-.05.13-.08.17-.11l.04-.03h.01s.47-.29.47-.29v-2.96l-1.74-4.35h0c-.26-.62-.4-1.06-.48-1.35-.04-.15-.07-.26-.1-.37-.02-.06-.03-.11-.08-.23-.03-.06-.06-.14-.17-.26-.06-.06-.13-.14-.26-.21-.12-.07-.3-.12-.47-.12-.18,0-.34.05-.45.11-.22.12-.3.24-.36.31-.1.14-.11.2-.14.26-.04.1-.07.19-.11.3-.14.38-.42,1.07-1.1,2.14-.68,1.06-1.78,2.49-3.54,4.25-6.68,6.68-6.8,6.8-6.81,6.81l.69.68.12-.96s-.04,0-.12,0c-.26,0-.5.1-.69.28-.18.18-.28.43-.28.68s.1.5.28.68.43.28.69.28c.13,0,.21-.02.26-.04.1-.03.15-.05.18-.07.06-.03.08-.05.1-.06.05-.03.06-.04.07-.05l-1.12-1.57-4.01,2.5,1.03,1.64,4-2.5-.51-.82-.61-.75.61.75-.57-.78-.04.03.61.75-.57-.78.57.78-.49-.83-.07.05.57.78-.49-.83.49.83-.39-.89c-.06.02-.08.04-.11.05l.49.83-.39-.89.39.89-.26-.93c-.06.02-.09.03-.12.04l.39.89-.26-.93c.06-.02.13-.04.26-.04-.26,0-.5.1-.69.28-.18.18-.28.43-.28.68s.1.5.28.68.43.28.69.28v-.97l-.12.96s.04,0,.12,0v-.97l-.12.96c.29.04.6-.07.81-.28,0,0,.03-.03.9-.9.87-.87,2.57-2.57,5.91-5.91,2.36-2.36,3.64-4.2,4.35-5.48.35-.64.57-1.14.69-1.47.06-.16.11-.29.13-.34h0s0-.01,0-.01l-.63-.27.56.39c.06-.09.06-.11.07-.12l-.63-.27.56.39-.75-.52.56.72c.11-.09.16-.15.19-.2l-.75-.52.56.72-.58-.75.35.88c.1-.04.17-.09.23-.13l-.58-.75.35.88-.35-.89v.95c.13,0,.26-.03.35-.07l-.35-.89v.95-.95l-.46.84c.12.07.29.12.46.12v-.95l-.46.84.45-.81-.79.49c.05.07.11.19.34.32l.45-.81-.79.49.68-.42-.74.3s.02.06.06.12l.68-.42-.74.3.4-.16-.41.13v.03s.41-.16.41-.16l-.41.13s.02.08.05.18c.09.33.26.93.61,1.76l.89-.38-.9.36,1.6,3.99v2.04h.97l-.49-.83s-.99.58-1.98,1.38c-.5.4-1.01.85-1.43,1.36-.21.25-.4.52-.55.82-.15.3-.26.64-.26,1.03h.97l-.85-.47s-.62,1.1-1.23,2.43c-.31.66-.62,1.38-.86,2.07-.12.34-.22.68-.3,1.01-.08.33-.13.64-.13.96h1.94M15.71,4.81v-.04c.01-.19.08-1.1.23-1.91.07-.4.17-.79.26-.99.02-.05.04-.09.05-.11v-.02s0,0,0,0l-.32-.25.21.34c.08-.05.1-.08.11-.09l-.32-.25.21.34-.35-.56v.66c.14,0,.28-.05.35-.1l-.35-.56v.66-.63l-.29.56c.06.03.16.07.29.07v-.63l-.29.56.19-.36-.25.33.06.04.19-.36-.25.33.12-.16-.14.15h.01s.12-.15.12-.15l-.14.15.05-.06-.05.05h0s.05-.05.05-.05l-.05.05h0s3.46,3.46,3.46,3.46l2.91-2.91-.69-.68-.41.88c.12.06,13.53,6.38,41.48,6.38,2.59,0,5.3-.05,8.14-.17l-.04-.97-.29.92,4.59,1.43h2.92v-1.94h-2.63l-4.46-1.39h-.17c-2.81.12-5.5.18-8.06.18-13.83,0-24.02-1.56-30.74-3.12-3.36-.78-5.85-1.55-7.5-2.13-.82-.29-1.43-.53-1.83-.69-.2-.08-.35-.15-.45-.19-.05-.02-.08-.04-.11-.05h-.02s0-.01,0-.01l-.62-.29-2.02,2.02-2.09-2.09c-.11-.11-.24-.22-.41-.31C16.24.06,16.03,0,15.81,0c-.24,0-.46.07-.64.17-.32.19-.48.43-.6.64-.21.38-.32.77-.42,1.18-.15.62-.23,1.28-.29,1.8-.06.52-.08.89-.08.9l1.93.11"/>
      <path class="cls-3" d="M35.46,12.27c-.13.33-1.12,1.35-2.96,3.06-1.84,1.71-3.38,3.25-4.62,4.62-1.24,1.37-2.36,2.82-3.36,4.33-1,1.51-1.59,2.7-1.75,3.58-.12.65-.06,1.03.17,1.14.24.11.45.17.63.17.77,0,1.9-.44,3.41-1.33,1.51-.89,2.77-1.62,3.77-2.18-1.3,1.15-2.61,2.29-3.93,3.44-3.08,1.98-5.34,2.97-6.79,2.97-.45,0-.83-.16-1.14-.48-.31-.32-.52-.76-.63-1.31-.11-.55-.11-1.14,0-1.76.26-1.37.97-2.83,2.14-4.36,1.17-1.53,2.44-2.99,3.82-4.39,1.38-1.39,2.05-2.12,2.02-2.18-.17-.17-.73.1-1.67.81-.94.71-2.14,1.68-3.59,2.92-1.45,1.24-2.65,2.27-3.61,3.09-.95.82-2.39,2.15-4.3,3.98-1.91,1.83-3.16,2.75-3.75,2.75-.16,0-.3-.07-.43-.22-.13-.15-.21-.45-.25-.92-.04-.47,0-.97.1-1.51.13-.71.32-1.21.55-1.5.23-.29,1.4-1.57,3.5-3.82,2.1-2.26,3.84-4.2,5.23-5.82,1.38-1.62,2.13-2.74,2.25-3.34.03-.17,0-.28-.1-.34-.5-.21-1.82.59-3.94,2.39-2.13,1.8-3.87,3.4-5.22,4.79-1.35,1.39-2.78,2.93-4.29,4.6-1.51,1.68-2.65,2.89-3.42,3.65-.77.76-1.38,1.19-1.83,1.29-.42.1-.75-.16-.98-.78-.23-.62-.25-1.46-.05-2.5.04-.23,1.23-1.6,3.55-4.12,2.32-2.52,4.22-4.63,5.68-6.35,1.46-1.71,2.28-3.01,2.44-3.88.04-.23.02-.41-.07-.55-.09-.13-.27-.2-.54-.2-.59,0-1.66.37-3.22,1.12-1.56.75-3.12,1.5-4.67,2.26-1.55.76-2.59,1.14-3.11,1.14-.29,0-.45-.11-.48-.33-.03-.22-.01-.47.04-.76.29-1.52,1.42-3.06,3.4-4.62.49-.21.99-.43,1.51-.66,0,.1-.08.28-.25.51-.17.24-.23.38-.2.42.04.02,1.17-.45,3.38-1.41,2.21-.96,3.86-1.44,4.94-1.44.61,0,1.08.15,1.41.44.33.29.55.67.65,1.14.1.47.1.99,0,1.58-.16.87-.54,1.83-1.12,2.87-.58,1.04-1.12,2.04-1.62,3,.13.02,1.14-.76,3.02-2.34,1.88-1.58,3.62-2.94,5.19-4.09,1.58-1.14,2.76-1.72,3.55-1.72.2,0,.42.07.65.2.23.13.41.37.53.7.12.33.13.73.05,1.19-.22,1.17-1.24,2.88-3.06,5.15-.73,1.02-1.45,2.04-2.16,3.06.04.02,1.3-.93,3.76-2.86,2.47-1.92,4.67-3.57,6.61-4.93,1.93-1.36,3.26-2.04,3.98-2.04.2,0,.47.38.82,1.14.34.76.46,1.28.37,1.55"/>
      <path class="cls-3" d="M43.55,12.99c.26.17.35.46.28.87-.05.27-.17.55-.34.84-.18.29-.41.61-.7.95-.29.34-.67.66-1.15.97-.47.3-.89.45-1.25.45-.16,0-.36-.07-.6-.2-.25-.13-.32-.44-.23-.92.05-.27.16-.55.33-.84.17-.29.39-.6.66-.92.28-.32.65-.63,1.14-.92.48-.29.93-.44,1.33-.44.2,0,.38.05.55.16M40.83,26c-1.41,1.14-2.88,2.29-4.41,3.43-1.53,1.14-2.7,1.71-3.48,1.71-.07,0-.36-.13-.88-.37-.52-.25-.89-.79-1.13-1.61-.24-.82-.25-1.84-.02-3.04.18-.98,1.21-2.49,3.08-4.54,1.87-2.05,3.04-3.11,3.49-3.17.45-.06.75-.1.9-.11.15-.01.31-.02.49-.02.38,0,.64.05.76.16.13.1.2.25.21.44.04.6-.43,1.48-1.42,2.64-.99,1.15-1.86,1.96-2.61,2.42-.75.46-1.22.86-1.42,1.22-.2.35-.34.74-.42,1.16-.09.48-.07.89.05,1.23.13.34.39.53.79.55.94,0,1.98-.35,3.1-1.06,1.12-.71,2.17-1.42,3.14-2.15l-.21,1.12"/>
      <path class="cls-3" d="M51.1,21.95c-.49.58-1.2,1.24-2.13,1.99-.93.74-1.92,1.45-2.97,2.12-1.05.67-1.71.99-1.97.95-.33-.06-.45-.29-.38-.68.04-.23.21-.59.49-1.09.28-.5.61-.97.96-1.43.36-.46,1.52-1.13,3.49-2.03,1.97-.9,3.01-1.24,3.1-1.01.1.21-.1.6-.59,1.18M61.48,9.18c-.56,0-1.35.58-2.36,1.75-1.01,1.16-2.17,2.62-3.49,4.35-1.32,1.74-2.04,2.63-2.16,2.68-.12.05-.26.08-.42.08-.02,0-.17-.05-.45-.15-.28-.1-.51-.15-.72-.15-1.28,0-3.33.8-6.15,2.41-2.81,1.61-4.4,3.37-4.76,5.28-.2,1.06-.12,2.07.24,3.04.36.97.89,1.5,1.59,1.6.53.06,1.69-.67,3.49-2.21,1.8-1.54,2.77-2.27,2.92-2.21.02,0-.07.83-.27,2.49-.2,1.66.09,2.49.88,2.49,1.24,0,2.63-.51,4.16-1.53,1.53-1.02,2.95-2.05,4.25-3.09l.21-1.12c-1.09.65-2.23,1.29-3.41,1.93-1.18.64-2.1.96-2.75.96-.2,0-.35-.07-.45-.2-.1-.14-.1-.44-.01-.92.1-.54.37-1.32.81-2.34.44-1.02.96-2.11,1.56-3.28,1.77-2.21,3.47-4.35,5.11-6.41,1.64-2.06,2.54-3.52,2.7-4.38.09-.5,0-.83-.29-1-.13-.04-.21-.06-.26-.06"/>
      <path class="cls-3" d="M80.55,16.08l-3.81.33c-.21.04-.31-.02-.3-.18,0-.3.42-.89,1.23-1.76.82-.87,1.76-1.8,2.83-2.79,1.07-.98,1.87-1.68,2.4-2.11.55-.31,1.08-.61,1.61-.92,0,.09-.07.26-.2.51M88.17,4.82c-.2-.38-.42-.56-.66-.54-.26.04-1.27.71-3.03,2.02-1.76,1.31-3.79,3.04-6.08,5.19-2.3,2.15-3.99,3.9-5.07,5.26-.2.16-.66.22-1.37.2-.2,0-.31-.13-.35-.36-.04-.23-.24-.35-.61-.37-.22,0-.69.04-1.4.14-.72.1-1.54.74-2.46,1.92-.92,1.18-1.24,1.9-.97,2.16.17.16.42.25.75.26.2,0,.48,0,.85,0,.33.01.57.12.74.34.23.36-.13,1.06-1.1,2.12-.96,1.06-1.76,1.61-2.39,1.66-.26,0-.89.67-1.89,2.02-1,1.36-1.51,2.35-1.52,2.97,0,.32.13.5.42.53.8.03,1.81-.58,3.03-1.82,1.22-1.24,2.63-2.83,4.22-4.77,1.6-1.94,2.45-2.91,2.56-2.91l5.74.1c.26,0,.38.15.38.43-.43,1.07-.84,2.09-1.23,3.07-.39.98-.6,1.81-.61,2.5-.01.74.16,1.25.51,1.55.35.3.7.45,1.05.47.69.02,1.52-.3,2.47-.98.95-.67,1.71-1.3,2.27-1.89.56-.58,1.03-1.09,1.39-1.52.37-.43.55-.66.55-.71l.02-.97s-.66.52-1.98,1.49c-1.32.97-2.12,1.35-2.4,1.13-.17-.12.02-.91.58-2.36.56-1.45.97-2.27,1.25-2.46.28-.19.67-.27,1.2-.26.52.02,1.16-.34,1.93-1.06.76-.73,1.24-1.61,1.43-2.64.07-.34-.2-.54-.8-.58-.61-.04-.98-.09-1.12-.14-.14-.05-.21-.18-.2-.39,0-.46.71-1.99,2.1-4.58,1.4-2.59,2.1-4.35,2.12-5.27,0-.25-.09-.57-.29-.95"/>
      <path class="cls-3" d="M100.78,26.17c0,.29-.98,1.07-2.93,2.34-1.95,1.27-3.15,1.9-3.61,1.89-.41-.01-.77-.16-1.08-.44-.31-.28-.46-.64-.45-1.07,0-.52.18-1.15.5-1.9.32-.75.66-1.51,1.02-2.29,0-.13-.04-.2-.12-.22-.17-.04-.6.32-1.31,1.08-.7.76-1.17,1.25-1.42,1.48-.24.23-.73.73-1.45,1.5-.73.78-1.35,1.15-1.86,1.14-.12,0-.28-.05-.47-.14-.19-.09-.35-.22-.46-.41-.12-.18-.17-.39-.17-.62,0-.56.38-1.44,1.11-2.65.73-1.21,1.1-1.95,1.1-2.2,0-.12-.03-.22-.1-.27-.2-.19-.66.1-1.37.87-.71.77-1.41,1.51-2.08,2.24-.52.74-.99,1.4-1.41,1.98-.42.59-.87.87-1.34.86-.38-.01-.71-.43-1.01-1.27-.3-.83-.44-1.67-.43-2.51.01-.82.51-1.93,1.5-3.31.99-1.38,1.64-2.15,1.97-2.3.33-.15.62-.22.9-.21.39.01.7.1.93.27.23.17.34.31.34.41,0,.32-.52,1.07-1.54,2.24-1.02,1.17-1.53,1.95-1.54,2.34,0,.11.04.23.12.35.13.15.86-.46,2.19-1.84,1.33-1.37,2.46-2.47,3.38-3.28.93-.81,1.73-1.21,2.41-1.19.36.01.62.14.78.39.17.25.25.53.24.86,0,.52-.21,1.16-.61,1.92-.4.76-.78,1.5-1.15,2.22.1.08.74-.39,1.92-1.39,1.18-1,2.15-1.8,2.92-2.4.77-.59,1.28-.86,1.55-.8.2.04.42.25.65.61.23.37.34.67.34.92,0,.32-.52,1.16-1.54,2.5-1.02,1.34-1.54,2.27-1.55,2.77,0,.38.2.62.63.74.29.08.89-.13,1.82-.63.92-.5,1.82-1.02,2.7-1.56"/>
      <path class="cls-3" d="M106.7,21.5c-.23.39-.55.77-.95,1.13-.41.37-.87.71-1.38,1.02-.51.31-.82.42-.91.3-.11-.13,0-.45.31-.95.32-.5.67-.91,1.06-1.25.39-.33.81-.62,1.28-.85.47-.24.73-.31.79-.22.1.15.03.42-.2.81M110.01,25.64s-.74.4-2.21,1.11c-1.47.7-2.54,1.03-3.22.98-.59-.04-1.04-.23-1.33-.58-.3-.34-.44-.7-.42-1.06.01-.23.13-.42.34-.54.22-.13,1.56-.88,4.03-2.24,1.11-.9,1.69-1.88,1.75-2.94.01-.29-.07-.56-.27-.8-.19-.25-.57-.39-1.13-.43-1.12-.08-2.58.5-4.38,1.74-1.8,1.24-2.75,2.89-2.85,4.95-.05.9.13,1.81.53,2.73.4.92,1.05,1.41,1.95,1.47,1.07.07,2.53-.43,4.37-1.51,1.84-1.08,2.77-1.72,2.78-1.9l.05-.97Z"/>
      <path class="cls-3" d="M119.15,27.8c-.03.23-.78.9-2.25,2-1.47,1.1-2.57,1.61-3.3,1.51-.44-.06-.77-.34-1-.85-.23-.51-.31-1.07-.24-1.67.08-.73.36-1.46.84-2.21.54-.67,1.09-1.33,1.64-1.99,0-.09-.1-.15-.34-.18-.37-.05-.88-.04-1.51.04-.63.08-1.04.27-1.22.58-.18.31-.51.59-.98.86-.47.26-.87.49-1.18.68l.11-.96c.15-.09.28-.2.39-.34.11-.14.18-.31.2-.5.01-.12-.03-.27-.12-.44-.09-.17-.14-.3-.13-.41.1-.89.6-1.75,1.5-2.57.9-.83,1.59-1.21,2.09-1.14.14.02.21.16.22.43.01.27.04.47.09.59.05.13.22.21.53.25.25.03.72.02,1.41-.06.69-.07,1.15-.09,1.39-.06.05,0,.1.01.15.02.06.05.16.1.3.18s.27.39.38.96c.12.57.12.93.02,1.07-.43.34-.85.71-1.26,1.1-.41.4-.77.83-1.07,1.29-.3.46-.53.85-.68,1.17-.15.31-.25.6-.28.87-.03.25.02.45.14.61.12.16.33.26.63.3.42.06.98-.15,1.69-.64.7-.48,1.36-.98,1.96-1.49"/>
      <path class="cls-3" d="M128.08,18.38c.19.19.26.46.19.81-.04.23-.13.46-.27.68-.14.23-.31.47-.53.72-.22.25-.5.48-.85.67-.35.19-.66.26-.95.19-.12-.02-.27-.12-.45-.27-.18-.16-.23-.44-.16-.84.04-.23.13-.46.25-.69.13-.23.3-.46.51-.7.21-.24.49-.45.86-.63.36-.18.69-.24.99-.17.15.03.28.11.4.22M125.89,29.35c-1.04.78-2.15,1.55-3.31,2.31-1.16.76-2.04,1.07-2.62.95-.07-.01-.29-.17-.67-.47-.38-.3-.65-.83-.82-1.59-.17-.76-.16-1.65.03-2.67.15-.83.94-1.99,2.36-3.49,1.43-1.5,2.3-2.24,2.64-2.22.34.02.56.03.67.05.11.01.23.04.37.06.28.06.47.15.56.26.09.11.14.25.15.41.03.53-.34,1.23-1.1,2.08-.76.85-1.41,1.42-1.97,1.7-.55.28-.91.56-1.06.84-.15.28-.26.59-.33.94-.07.4-.07.77.02,1.09.09.32.28.52.58.6.7.15,1.47,0,2.31-.44.84-.44,1.63-.9,2.35-1.38l-.17.95Z"/>
      <path class="cls-3" d="M134.62,32.3c-1.23.47-2.54.92-3.94,1.34-1.39.42-2.5.47-3.33.17-.9-.33-1.48-1.02-1.72-2.06-.25-1.04-.2-2.1.14-3.16.34-1.07,1.56-2.1,3.65-3.1,2.09-1,3.75-1.28,4.98-.83.14.05.38.16.71.33.33.17.39.54.21,1.14-.21.66-.8,1.29-1.76,1.91-.96.61-1.61.78-1.93.51-.19-.14-.28-.32-.28-.54,0-.21-.11-.33-.34-.33-.26-.02-.9.19-1.89.64-1,.45-1.52.74-1.57.9-.24.74-.21,1.32.08,1.74.29.42.66.71,1.09.86.76.28,1.78.31,3.06.11s2.33-.38,3.13-.52"/>
      <path class="cls-3" d="M141.6,31.73c-.77.49-1.48.89-2.14,1.21-.66.32-1.32.64-1.99.95-.67.32-1.15.42-1.46.31-.13-.05-.23-.16-.29-.33-.06-.17-.06-.36,0-.57.14-.42.48-.85,1.05-1.26.56-.42,1.17-.72,1.82-.9.65-.18,1.47-.32,2.44-.42.98-.1,1.49-.09,1.55.02.11.17-.22.5-.99.99M146.69,35.7c-.82.14-1.68.26-2.58.36-.9.1-1.62.05-2.15-.14-.21-.08-.35-.2-.43-.37-.08-.17-.08-.38,0-.61.1-.32.55-.83,1.34-1.53.79-.7,1.25-1.26,1.38-1.69.05-.15.1-.35.14-.6.05-.25.08-.4.1-.45.02-.07.11-.17.27-.3.16-.13.28-.26.35-.38.11-.17.1-.48-.02-.92-.12-.44-.27-.72-.45-.82-.33-.16-1.3-.17-2.93-.05-1.63.13-3.18.49-4.66,1.1-1.48.6-2.42,1.53-2.81,2.76-.24.75-.28,1.65-.14,2.72.15,1.07.4,1.66.75,1.79.39.14,1.25-.18,2.6-.96,1.35-.78,2.05-1.13,2.11-1.05-.11.19-.25.43-.42.73-.17.3-.31.63-.43,1.01-.16.49-.16.88-.02,1.18.14.3.39.51.74.64.89.32,1.99.28,3.3-.13,1.31-.41,2.53-.87,3.66-1.36l.29-.92Z"/>
      <path class="cls-3" d="M63.48,21.06c0,.92-.84,1.67-1.88,1.67s-1.88-.75-1.88-1.67.84-1.67,1.88-1.67,1.88.75,1.88,1.67"/>
      <path class="cls-3" d="M34.1,58.44l2.23.86c-.15.8-.38,1.47-.7,2-.32.54-.72.94-1.19,1.21-.47.27-1.08.41-1.82.41-.89,0-1.61-.17-2.18-.5-.57-.33-1.05-.92-1.46-1.76-.41-.84-.61-1.91-.61-3.22,0-1.74.36-3.08,1.08-4.02.72-.94,1.74-1.4,3.06-1.4,1.03,0,1.84.27,2.44.8.59.54,1.03,1.36,1.32,2.47l-2.23.63c-.08-.32-.16-.55-.25-.7-.14-.25-.32-.44-.53-.57-.21-.13-.44-.2-.69-.2-.58,0-1.03.3-1.33.89-.23.44-.35,1.13-.35,2.07,0,1.17.14,1.97.41,2.4.28.43.66.65,1.16.65s.85-.18,1.1-.53c.25-.35.43-.86.54-1.53"/>
      <polyline class="cls-3" points="37.55 52.21 40.08 52.21 40.08 60.15 44.02 60.15 44.02 62.75 37.55 62.75 37.55 52.21"/>
      <path class="cls-3" d="M50.2,52.21h2.53v6.28c0,.62-.08,1.21-.23,1.76-.15.55-.39,1.04-.71,1.45-.32.41-.66.7-1.01.87-.49.23-1.08.35-1.77.35-.4,0-.83-.04-1.3-.11-.47-.07-.86-.21-1.18-.43-.32-.21-.61-.52-.87-.91-.26-.39-.44-.8-.53-1.21-.16-.67-.24-1.26-.24-1.78v-6.28h2.53v6.43c0,.57.12,1.02.37,1.35.25.32.59.48,1.02.48s.76-.16,1.01-.48c.25-.32.37-.77.37-1.35v-6.43"/>
      <polyline class="cls-3" points="53.83 52.21 61.52 52.21 61.52 54.81 58.94 54.81 58.94 62.75 56.41 62.75 56.41 54.81 53.83 54.81 53.83 52.21"/>
      <path class="cls-3" d="M67.73,58.44l2.23.86c-.15.8-.38,1.47-.71,2-.32.54-.72.94-1.19,1.21-.47.27-1.08.41-1.82.41-.89,0-1.61-.17-2.18-.5-.57-.33-1.05-.92-1.46-1.76-.41-.84-.61-1.91-.61-3.22,0-1.74.36-3.08,1.08-4.02.72-.94,1.74-1.4,3.06-1.4,1.03,0,1.84.27,2.44.8.59.54,1.03,1.36,1.32,2.47l-2.23.63c-.08-.32-.16-.55-.25-.7-.14-.25-.32-.44-.53-.57-.21-.13-.44-.2-.69-.2-.58,0-1.03.3-1.34.89-.23.44-.35,1.13-.35,2.07,0,1.17.14,1.97.41,2.4.28.43.66.65,1.16.65s.85-.17,1.1-.53c.25-.35.43-.86.54-1.53"/>
      <polyline class="cls-3" points="71.19 52.21 73.72 52.21 73.72 55.91 76.48 55.91 76.48 52.21 79.03 52.21 79.03 62.75 76.48 62.75 76.48 58.49 73.72 58.49 73.72 62.75 71.19 62.75"/>
      <path class="cls-3" d="M89.97,58.44l2.23.86c-.15.8-.38,1.47-.7,2-.32.54-.72.94-1.19,1.21-.48.27-1.08.41-1.82.41-.89,0-1.61-.17-2.18-.5-.57-.33-1.05-.92-1.46-1.76-.41-.84-.62-1.91-.62-3.22,0-1.74.36-3.08,1.08-4.02.72-.94,1.74-1.4,3.06-1.4,1.03,0,1.84.27,2.44.8.59.54,1.03,1.36,1.32,2.47l-2.23.63c-.08-.32-.16-.55-.25-.7-.15-.25-.32-.44-.53-.57-.21-.13-.44-.2-.69-.2-.58,0-1.02.3-1.33.89-.23.44-.35,1.13-.35,2.07,0,1.17.14,1.97.41,2.4.28.43.66.65,1.16.65s.85-.17,1.1-.53c.25-.35.43-.86.54-1.53"/>
      <path class="cls-3" d="M96.09,55.19c.31-.46.72-.7,1.23-.7s.95.23,1.26.69c.31.46.47,1.18.47,2.17,0,1.18-.15,2-.45,2.45-.3.46-.72.68-1.26.68s-.95-.23-1.26-.7c-.31-.46-.46-1.23-.46-2.29s.15-1.84.46-2.31M93.66,60.56c.38.82.87,1.42,1.47,1.8.61.38,1.37.57,2.29.57s1.67-.22,2.28-.66c.61-.44,1.08-1.05,1.4-1.84.32-.79.49-1.8.49-3.03,0-1.69-.37-3.01-1.11-3.95-.74-.94-1.79-1.41-3.15-1.41s-2.36.48-3.11,1.44c-.75.96-1.12,2.3-1.12,4.02,0,1.23.19,2.26.56,3.07"/>
      <rect class="cls-3" x="102.51" y="59.82" width="2.42" height="2.93"/>
      <path class="cls-3" d="M106.32,59.85h2.42v2.4c0,.88-.14,1.58-.43,2.09-.29.51-.77.96-1.46,1.36l-.53-1.28c.43-.26.73-.51.89-.77.16-.26.25-.56.27-.91h-1.17"/>
      <path class="cls-3" d="M117.36,53.88c-.05-.04-.1-.06-.14-.06-.29,0-.64.43-1.05,1.3-.41.86-.58,1.41-.53,1.62.02.11.09.18.2.23.11.04.18.09.2.14.04.1-.05.35-.26.76-.21.41-.35.59-.41.55-.15-.12-.28-.27-.41-.45-.12-.18-.21-.33-.26-.47-.05-.14-.08-.27-.1-.39-.12-.84.08-1.89.6-3.15.52-1.25,1.08-1.88,1.67-1.88.32,0,.57.15.76.44.18.29.31.7.39,1.21.12.83.12,1.83.01,3.01-.11,1.18-.27,2.36-.47,3.55-.2,1.19-.3,1.79-.3,1.8.04.26.02.58-.04.95-.07.37-.15.56-.25.56-.09,0-.2-.08-.34-.24-.13-.16-.2-.31-.19-.43,0-.08.12-.89.36-2.44.23-1.54.41-2.88.55-4.02.13-1.13.17-1.92.11-2.35-.02-.15-.05-.23-.09-.24"/>
      <path class="cls-3" d="M122.68,61.33c.02.14-.2.64-.67,1.52-.47.88-.81,1.32-1.01,1.32-.17,0-.32-.11-.43-.34-.11-.23-.2-.53-.25-.91-.05-.33-.02-.81.07-1.44.1-.63.13-.97.1-1.01-.04-.05-.13.12-.27.53-.14.41-.24.68-.29.83-.05.14-.15.49-.3,1.04-.15.55-.3.81-.47.79-.12-.03-.25-.26-.37-.69-.12-.43-.22-.9-.29-1.4-.1-.68-.06-1.41.12-2.19.18-.78.31-1.21.41-1.27.1-.07.21-.1.33-.1.09,0,.16.01.2.03.05.02.09.05.13.1.04.05.07.11.08.17.03.22-.06.7-.29,1.44-.22.74-.32,1.21-.29,1.39,0,.07.03.12.05.14.06.07.18-.18.36-.74.19-.56.35-1.01.5-1.35.15-.34.35-.71.62-1.1.26-.39.46-.59.59-.59.06,0,.13.1.21.31.09.2.15.43.18.67.02.14.02.26.01.36,0,.1-.09.43-.24.98-.15.55-.24.95-.27,1.19-.03.24-.05.43-.05.55,0,.12,0,.24.02.37.03.22.1.33.19.33.16,0,.35-.17.58-.5.23-.33.44-.66.65-.99"/>
      <path class="cls-3" d="M125.76,61.33c-.26.53-.55,1.06-.88,1.58-.32.52-.63.79-.92.79-.32,0-.6-.27-.87-.81-.26-.54-.44-1.15-.54-1.83-.1-.68.06-1.53.48-2.54.42-1.01.84-1.51,1.28-1.51.05,0,.14.01.26.04.12.03.21.23.26.59.06.42,0,.91-.15,1.46-.16.55-.31.79-.46.71-.08-.04-.14-.13-.18-.26-.04-.13-.09-.17-.16-.12-.08.04-.22.3-.42.76-.2.47-.3.75-.28.85.07.48.18.81.34.99.16.18.31.27.47.27.26,0,.56-.2.89-.58.33-.39.59-.71.79-.95"/>
      <path class="cls-3" d="M127.37,61.68c.06.07.09.16.11.27.02.14.02.31,0,.5-.02.19-.07.45-.14.76-.08.31-.21.47-.4.47-.05,0-.11-.02-.17-.07-.06-.05-.11-.15-.13-.3-.02-.17-.03-.34,0-.51.02-.17.08-.42.19-.73.1-.31.24-.47.42-.47.05,0,.09.03.14.08"/>
      <polyline class="cls-3" points="89.92 35.79 88.53 40.05 90.04 43.79 86.97 43.57 84.85 47.18 84.34 42.79 81.52 41.28 84.28 38.79 84.65 34.24 86.87 37.1"/>
      <path class="cls-2" d="M144.09,17.33c1.81,0,3.25,1.47,3.25,3.31s-1.44,3.33-3.27,3.33-3.28-1.46-3.28-3.33,1.47-3.31,3.28-3.31M144.07,17.84c-1.46,0-2.65,1.25-2.65,2.8s1.19,2.81,2.66,2.81c1.47.01,2.65-1.24,2.65-2.79s-1.18-2.81-2.65-2.81h-.01ZM143.45,22.56h-.59v-3.69c.31-.04.6-.09,1.04-.09.56,0,.93.12,1.15.28.22.16.34.41.34.76,0,.49-.32.78-.72.9v.03c.32.06.54.35.62.9.09.57.18.79.24.91h-.62c-.09-.12-.18-.46-.25-.94-.09-.47-.32-.65-.79-.65h-.41v1.59ZM143.45,20.52h.43c.49,0,.9-.18.9-.63,0-.32-.24-.65-.9-.65-.19,0-.32.02-.43.03v1.25Z"/>
    </g>
  </g>
</svg>